<svg width="140" height="36" viewBox="0 0 140 36" fill="none" xmlns="http://www.w3.org/2000/svg">
<path d="M49.2476 18.5103V27.982H53.0081V18.4201C53.0081 16.4055 53.9483 15.2027 55.6466 15.2027C57.3449 15.2027 58.3761 16.4055 58.3761 18.5404V27.982H62.1366V18.5404C62.1366 16.4055 63.1374 15.2027 64.8661 15.2027C66.5341 15.2027 67.5046 16.4055 67.5046 18.4201V27.982H71.2652V18.5103C71.2652 14.2405 68.93 11.7147 65.1087 11.7147C62.8038 11.7147 61.1358 12.6168 60.226 14.03C59.3162 12.6168 57.6482 11.7147 55.3737 11.7147C51.5524 11.7147 49.2476 14.2405 49.2476 18.5103Z" fill="black"/>
<path d="M81.9681 28.2827C84.0606 28.2827 86.0016 27.5009 87.154 26.0576L87.1844 27.982H90.5204V12.0755H87.1844L87.154 14C86.0016 12.5566 84.0606 11.7749 81.9681 11.7749C77.6009 11.7749 73.992 15.1426 73.992 20.0438C73.992 24.8849 77.6009 28.2827 81.9681 28.2827ZM77.7526 20.0438C77.7526 17.1572 79.7542 15.2027 82.4533 15.2027C85.0008 15.2027 87.0327 16.9768 87.0327 20.0438C87.0327 23.0808 85.0008 24.8548 82.4533 24.8548C79.7542 24.8548 77.7526 22.9004 77.7526 20.0438Z" fill="black"/>
<path d="M91.5091 33.9657H92.4795C96.1188 33.9657 98.0294 32.0413 98.0294 28.5834V12.0755H94.2689V28.433C94.2689 29.9064 93.632 30.5078 92.1156 30.5078H91.5091V33.9657ZM94.2689 9.42948H98.0294V4.7688H94.2689V9.42948Z" fill="black"/>
<path d="M101.762 27.982H105.522V12.0755H101.762V27.982ZM101.762 9.42948H105.522V4.7688H101.762V9.42948Z" fill="black"/>
<path d="M109.073 18.5103V27.982H112.833V18.6306C112.833 16.4055 113.865 15.2027 115.745 15.2027C117.595 15.2027 118.656 16.4055 118.656 18.6306V27.982H122.417V18.5103C122.417 14.2706 119.9 11.7147 115.745 11.7147C111.56 11.7147 109.073 14.2706 109.073 18.5103Z" fill="black"/>
<path d="M124.29 27.982H128.536L132.115 22.6297L135.724 27.982H140L134.329 19.9536L139.818 12.0755H135.694L132.115 17.1873L128.658 12.0755H124.351L129.931 19.9235L124.29 27.982Z" fill="black"/>
<g opacity="0.8">
<path d="M18.1031 35.8974C14.5227 35.8974 11.0227 34.8448 8.04568 32.8725C5.06867 30.9003 2.74837 28.0971 1.3782 24.8174C0.00803662 21.5377 -0.350461 17.9288 0.348045 14.4471C1.04655 10.9654 2.77069 7.76723 5.30243 5.25706L11.7208 11.6207C10.4585 12.8723 9.59881 14.4669 9.25054 16.2028C8.90226 17.9388 9.08101 19.7382 9.76417 21.3734C10.4473 23.0086 11.6042 24.4063 13.0885 25.3896C14.5729 26.373 16.3179 26.8978 18.1031 26.8978L18.1031 35.8974Z" fill="url(#paint0_linear_1_181)"/>
<path d="M18.1031 35.8974C14.5227 35.8974 11.0227 34.8448 8.04568 32.8725C5.06867 30.9003 2.74837 28.0971 1.3782 24.8174C0.00803662 21.5377 -0.350461 17.9288 0.348045 14.4471C1.04655 10.9654 2.77069 7.76723 5.30243 5.25706L11.7208 11.6207C10.4585 12.8723 9.59881 14.4669 9.25054 16.2028C8.90226 17.9388 9.08101 19.7382 9.76417 21.3734C10.4473 23.0086 11.6042 24.4063 13.0885 25.3896C14.5729 26.373 16.3179 26.8978 18.1031 26.8978L18.1031 35.8974Z" fill="url(#paint1_linear_1_181)"/>
</g>
<g opacity="0.8">
<path d="M31.7958 6.20782C34.0651 8.80946 35.5326 12.0028 36.0237 15.4078C36.5149 18.8128 36.0089 22.2859 34.566 25.4139C33.1231 28.5419 30.8041 31.193 27.885 33.0515C24.9659 34.9101 21.5696 35.8979 18.1004 35.8974L18.1018 26.8978C19.8315 26.8981 21.5248 26.4056 22.9803 25.4789C24.4357 24.5522 25.592 23.2304 26.3114 21.6708C27.0308 20.1112 27.2831 18.3795 27.0382 16.6818C26.7934 14.9841 26.0617 13.3919 24.9302 12.0948L31.7958 6.20782Z" fill="url(#paint2_linear_1_181)"/>
<path d="M31.7958 6.20782C34.0651 8.80946 35.5326 12.0028 36.0237 15.4078C36.5149 18.8128 36.0089 22.2859 34.566 25.4139C33.1231 28.5419 30.8041 31.193 27.885 33.0515C24.9659 34.9101 21.5696 35.8979 18.1004 35.8974L18.1018 26.8978C19.8315 26.8981 21.5248 26.4056 22.9803 25.4789C24.4357 24.5522 25.592 23.2304 26.3114 21.6708C27.0308 20.1112 27.2831 18.3795 27.0382 16.6818C26.7934 14.9841 26.0617 13.3919 24.9302 12.0948L31.7958 6.20782Z" fill="url(#paint3_linear_1_181)"/>
</g>
<path d="M29.9263 4.35779L31.8104 6.22589L2.68045 35.1077L0.796301 33.2396L29.9263 4.35779Z" fill="black"/>
<defs>
<linearGradient id="paint0_linear_1_181" x1="14.4141" y1="26.7958" x2="16.1855" y2="7.7382" gradientUnits="userSpaceOnUse">
<stop/>
<stop offset="1" stop-color="white" stop-opacity="0"/>
</linearGradient>
<linearGradient id="paint1_linear_1_181" x1="30.6297" y1="5.95463" x2="18.1148" y2="17.375" gradientUnits="userSpaceOnUse">
<stop offset="0.34375"/>
<stop offset="1" stop-opacity="0"/>
</linearGradient>
<linearGradient id="paint2_linear_1_181" x1="20.4199" y1="22.6276" x2="13.3153" y2="6.50498" gradientUnits="userSpaceOnUse">
<stop/>
<stop offset="1" stop-opacity="0"/>
</linearGradient>
<linearGradient id="paint3_linear_1_181" x1="29.4285" y1="8.93194" x2="14.5205" y2="21.5623" gradientUnits="userSpaceOnUse">
<stop/>
<stop offset="1" stop-opacity="0"/>
</linearGradient>
</defs>
</svg>
