<svg width="40" height="40" viewBox="0 0 40 40" fill="none" xmlns="http://www.w3.org/2000/svg">
<g opacity="0.8">
<path d="M20 39.6593C16.0444 39.6593 12.1776 38.4963 8.88862 36.3174C5.59964 34.1385 3.03619 31.0415 1.52244 27.4181C0.00868502 23.7947 -0.38738 19.8076 0.384322 15.9611C1.15603 12.1145 3.06084 8.58119 5.85789 5.80796L12.9488 12.8385C11.5542 14.2212 10.6045 15.9829 10.2197 17.9008C9.83497 19.8187 10.0324 21.8066 10.7872 23.6132C11.5419 25.4198 12.8201 26.9639 14.4599 28.0503C16.0998 29.1367 18.0278 29.7166 20 29.7166L20 39.6593Z" fill="url(#paint0_linear_1_2360)"/>
<path d="M20 39.6593C16.0444 39.6593 12.1776 38.4963 8.88862 36.3174C5.59964 34.1385 3.03619 31.0415 1.52244 27.4181C0.00868502 23.7947 -0.38738 19.8076 0.384322 15.9611C1.15603 12.1145 3.06084 8.58119 5.85789 5.80796L12.9488 12.8385C11.5542 14.2212 10.6045 15.9829 10.2197 17.9008C9.83497 19.8187 10.0324 21.8066 10.7872 23.6132C11.5419 25.4198 12.8201 26.9639 14.4599 28.0503C16.0998 29.1367 18.0278 29.7166 20 29.7166L20 39.6593Z" fill="url(#paint1_linear_1_2360)"/>
</g>
<g opacity="0.8">
<path d="M35.1276 6.85836C37.6347 9.73264 39.256 13.2606 39.7986 17.0224C40.3412 20.7842 39.7822 24.6214 38.1881 28.0771C36.594 31.5329 34.0319 34.4618 30.8069 36.5151C27.5819 38.5685 23.8298 39.6598 19.9971 39.6593L19.9985 29.7166C21.9095 29.7169 23.7803 29.1727 25.3883 28.1489C26.9963 27.1252 28.2737 25.6648 29.0685 23.9418C29.8633 22.2188 30.142 20.3056 29.8715 18.43C29.601 16.5544 28.7926 14.7953 27.5425 13.3622L35.1276 6.85836Z" fill="url(#paint2_linear_1_2360)"/>
<path d="M35.1276 6.85836C37.6347 9.73264 39.256 13.2606 39.7986 17.0224C40.3412 20.7842 39.7822 24.6214 38.1881 28.0771C36.594 31.5329 34.0319 34.4618 30.8069 36.5151C27.5819 38.5685 23.8298 39.6598 19.9971 39.6593L19.9985 29.7166C21.9095 29.7169 23.7803 29.1727 25.3883 28.1489C26.9963 27.1252 28.2737 25.6648 29.0685 23.9418C29.8633 22.2188 30.142 20.3056 29.8715 18.43C29.601 16.5544 28.7926 14.7953 27.5425 13.3622L35.1276 6.85836Z" fill="url(#paint3_linear_1_2360)"/>
</g>
<path d="M33.0624 4.81445L35.144 6.87832L2.9614 38.7868L0.8798 36.7229L33.0624 4.81445Z" fill="black"/>
<defs>
<linearGradient id="paint0_linear_1_2360" x1="15.9244" y1="29.6039" x2="17.8814" y2="8.54912" gradientUnits="userSpaceOnUse">
<stop/>
<stop offset="1" stop-color="white" stop-opacity="0"/>
</linearGradient>
<linearGradient id="paint1_linear_1_2360" x1="33.8393" y1="6.57864" x2="20.0129" y2="19.1957" gradientUnits="userSpaceOnUse">
<stop offset="0.34375"/>
<stop offset="1" stop-opacity="0"/>
</linearGradient>
<linearGradient id="paint2_linear_1_2360" x1="22.5595" y1="24.9988" x2="14.7105" y2="7.18666" gradientUnits="userSpaceOnUse">
<stop/>
<stop offset="1" stop-opacity="0"/>
</linearGradient>
<linearGradient id="paint3_linear_1_2360" x1="32.5123" y1="9.86796" x2="16.042" y2="23.8219" gradientUnits="userSpaceOnUse">
<stop/>
<stop offset="1" stop-opacity="0"/>
</linearGradient>
</defs>
</svg>
