<svg width="140" height="100" viewBox="0 0 140 100" fill="none" xmlns="http://www.w3.org/2000/svg">
<rect x="0.5" y="0.5" width="139" height="99" rx="9.5" fill="white"/>
<rect x="0.5" y="0.5" width="139" height="99" rx="9.5" stroke="url(#paint0_linear_621_1352)"/>
<rect width="140" height="20" fill="url(#paint1_linear_621_1352)"/>
<path d="M50 53L60 63" stroke="#2AF39B"/>
<path d="M60 53L50 63" stroke="#2AF39B"/>
<path d="M80 53L90 63" stroke="#2AF39B"/>
<path d="M90 53L80 63" stroke="#2AF39B"/>
<path d="M55 73H85" stroke="#2AF39B"/>
<path d="M73 73V79C73 81.4853 75.0147 83.5 77.5 83.5V83.5C79.9853 83.5 82 81.4853 82 79V73" stroke="#2AF39B"/>
<circle cx="10" cy="10" r="3" fill="white"/>
<circle cx="19" cy="10" r="3" fill="white"/>
<circle cx="28" cy="10" r="3" fill="white"/>
<defs>
<linearGradient id="paint0_linear_621_1352" x1="146.5" y1="17" x2="-3.5" y2="16.5" gradientUnits="userSpaceOnUse">
<stop stop-color="#12F3AD"/>
<stop offset="1" stop-color="#F2F60C"/>
</linearGradient>
<linearGradient id="paint1_linear_621_1352" x1="-6.5" y1="6.48657e-08" x2="142" y2="27" gradientUnits="userSpaceOnUse">
<stop stop-color="#FFF601"/>
<stop offset="1" stop-color="#01F2B8"/>
</linearGradient>
</defs>
</svg>
