<svg width="37" height="36" viewBox="0 0 37 36" fill="none" xmlns="http://www.w3.org/2000/svg">
<g opacity="0.8">
<path d="M18.1031 35.8974C14.5227 35.8974 11.0227 34.8448 8.04568 32.8725C5.06867 30.9003 2.74837 28.0971 1.3782 24.8174C0.00803662 21.5377 -0.350461 17.9288 0.348045 14.4471C1.04655 10.9654 2.77069 7.76723 5.30243 5.25706L11.7208 11.6207C10.4585 12.8723 9.59881 14.4669 9.25054 16.2028C8.90226 17.9388 9.08101 19.7382 9.76417 21.3734C10.4473 23.0086 11.6042 24.4063 13.0885 25.3896C14.5729 26.373 16.3179 26.8978 18.1031 26.8978L18.1031 35.8974Z" fill="url(#paint0_linear_1_183)"/>
<path d="M18.1031 35.8974C14.5227 35.8974 11.0227 34.8448 8.04568 32.8725C5.06867 30.9003 2.74837 28.0971 1.3782 24.8174C0.00803662 21.5377 -0.350461 17.9288 0.348045 14.4471C1.04655 10.9654 2.77069 7.76723 5.30243 5.25706L11.7208 11.6207C10.4585 12.8723 9.59881 14.4669 9.25054 16.2028C8.90226 17.9388 9.08101 19.7382 9.76417 21.3734C10.4473 23.0086 11.6042 24.4063 13.0885 25.3896C14.5729 26.373 16.3179 26.8978 18.1031 26.8978L18.1031 35.8974Z" fill="url(#paint1_linear_1_183)"/>
</g>
<g opacity="0.8">
<path d="M31.7958 6.20782C34.0651 8.80946 35.5326 12.0028 36.0237 15.4078C36.5149 18.8128 36.0089 22.2859 34.566 25.4139C33.1231 28.5419 30.8041 31.193 27.885 33.0515C24.9659 34.9101 21.5696 35.8979 18.1004 35.8974L18.1018 26.8978C19.8315 26.8981 21.5248 26.4056 22.9803 25.4789C24.4357 24.5522 25.592 23.2304 26.3114 21.6708C27.0308 20.1112 27.2831 18.3795 27.0382 16.6818C26.7934 14.9841 26.0617 13.3919 24.9302 12.0948L31.7958 6.20782Z" fill="url(#paint2_linear_1_183)"/>
<path d="M31.7958 6.20782C34.0651 8.80946 35.5326 12.0028 36.0237 15.4078C36.5149 18.8128 36.0089 22.2859 34.566 25.4139C33.1231 28.5419 30.8041 31.193 27.885 33.0515C24.9659 34.9101 21.5696 35.8979 18.1004 35.8974L18.1018 26.8978C19.8315 26.8981 21.5248 26.4056 22.9803 25.4789C24.4357 24.5522 25.592 23.2304 26.3114 21.6708C27.0308 20.1112 27.2831 18.3795 27.0382 16.6818C26.7934 14.9841 26.0617 13.3919 24.9302 12.0948L31.7958 6.20782Z" fill="url(#paint3_linear_1_183)"/>
</g>
<path d="M29.9263 4.35779L31.8104 6.22589L2.68045 35.1077L0.796301 33.2396L29.9263 4.35779Z" fill="black"/>
<defs>
<linearGradient id="paint0_linear_1_183" x1="14.4141" y1="26.7958" x2="16.1855" y2="7.7382" gradientUnits="userSpaceOnUse">
<stop/>
<stop offset="1" stop-color="white" stop-opacity="0"/>
</linearGradient>
<linearGradient id="paint1_linear_1_183" x1="30.6297" y1="5.95463" x2="18.1148" y2="17.375" gradientUnits="userSpaceOnUse">
<stop offset="0.34375"/>
<stop offset="1" stop-opacity="0"/>
</linearGradient>
<linearGradient id="paint2_linear_1_183" x1="20.4199" y1="22.6276" x2="13.3153" y2="6.50498" gradientUnits="userSpaceOnUse">
<stop/>
<stop offset="1" stop-opacity="0"/>
</linearGradient>
<linearGradient id="paint3_linear_1_183" x1="29.4285" y1="8.93194" x2="14.5205" y2="21.5623" gradientUnits="userSpaceOnUse">
<stop/>
<stop offset="1" stop-opacity="0"/>
</linearGradient>
</defs>
</svg>
