<svg xmlns="http://www.w3.org/2000/svg">
  <symbol id="arrow" viewBox="0 0 14 14" fill="none" xmlns="http://www.w3.org/2000/svg">
    <path d="M3 1H13V11" stroke="currentColor" stroke-width="2"/>
    <path d="M13 1L1 13" stroke="currentColor" stroke-width="2"/>
  </symbol>

  <symbol id="valid" viewBox="0 0 30 30" fill="none" xmlns="http://www.w3.org/2000/svg">
    <path d="M15 28.125C22.2487 28.125 28.125 22.2487 28.125 15C28.125 7.75126 22.2487 1.875 15 1.875C7.75126 1.875 1.875 7.75126 1.875 15C1.875 22.2487 7.75126 28.125 15 28.125Z" stroke="currentColor" stroke-width="2" stroke-miterlimit="10"/>
    <path d="M7.8374 15L12.6124 19.775L22.1624 10.225" stroke="currentColor" stroke-width="2" stroke-miterlimit="10"/>
  </symbol>

  <symbol id="invalid" viewBox="0 0 30 30" fill="none" xmlns="http://www.w3.org/2000/svg">
    <path d="M15 28.125C22.2487 28.125 28.125 22.2487 28.125 15C28.125 7.75126 22.2487 1.875 15 1.875C7.75126 1.875 1.875 7.75126 1.875 15C1.875 22.2487 7.75126 28.125 15 28.125Z" stroke="currentColor" stroke-width="2" stroke-miterlimit="10"/>
    <path d="M20.9626 9.03748L9.0376 20.9625" stroke="currentColor" stroke-width="2" stroke-miterlimit="10"/>
    <path d="M9.0376 9.03748L20.9626 20.9625" stroke="currentColor" stroke-width="2" stroke-miterlimit="10"/>
  </symbol>

  <symbol id="send" viewBox="0 0 31 30" fill="none" xmlns="http://www.w3.org/2000/svg">
    <path d="M5.1967 25.6068L8.09584 15.0002L5.1967 4.39363L26.4099 15.0002L5.1967 25.6068Z" stroke="currentColor" stroke-width="2" stroke-miterlimit="10"/>
    <path d="M8.73195 15H17.5708" stroke="currentColor" stroke-width="2" stroke-miterlimit="10"/>
  </symbol>
</svg>
