<svg xmlns="http://www.w3.org/2000/svg">
  <symbol id="arrow" viewBox="0 0 14 14" fill="none" xmlns="http://www.w3.org/2000/svg">
    <path d="M3 1H13V11" stroke="currentColor" stroke-width="2"/>
    <path d="M13 1L1 13" stroke="currentColor" stroke-width="2"/>
  </symbol>

  <symbol id="arrowUp" viewBox="0 0 60 60" fill="none" xmlns="http://www.w3.org/2000/svg">
    <path d="M9 30L30.2132 8.7868L51.4264 30" stroke="currentColor" stroke-width="4"/>
    <path d="M30.5 10V52" stroke="currentColor" stroke-width="4"/>
  </symbol>

  <symbol id="check" viewBox="0 0 60 60" fill="none" xmlns="http://www.w3.org/2000/svg">
    <path d="M30 56.3801C44.9117 56.3801 57 44.6545 57 30.1901C57 15.7258 44.9117 4.00012 30 4.00012C15.0883 4.00012 3 15.7258 3 30.1901C3 44.6545 15.0883 56.3801 30 56.3801Z" stroke="currentColor" stroke-width="4" stroke-miterlimit="10"/>
    <path d="M15.0789 29.5008L25.0262 39.1497L44.921 19.8518" stroke="currentColor" stroke-width="4" stroke-miterlimit="10"/>
  </symbol>


  <symbol id="valid" viewBox="0 0 30 30" fill="none" xmlns="http://www.w3.org/2000/svg">
    <path d="M15 28.125C22.2487 28.125 28.125 22.2487 28.125 15C28.125 7.75126 22.2487 1.875 15 1.875C7.75126 1.875 1.875 7.75126 1.875 15C1.875 22.2487 7.75126 28.125 15 28.125Z" stroke="currentColor" stroke-width="2" stroke-miterlimit="10"/>
    <path d="M7.8374 15L12.6124 19.775L22.1624 10.225" stroke="currentColor" stroke-width="2" stroke-miterlimit="10"/>
  </symbol>

  <symbol id="invalid" viewBox="0 0 30 30" fill="none" xmlns="http://www.w3.org/2000/svg">
    <path d="M15 28.125C22.2487 28.125 28.125 22.2487 28.125 15C28.125 7.75126 22.2487 1.875 15 1.875C7.75126 1.875 1.875 7.75126 1.875 15C1.875 22.2487 7.75126 28.125 15 28.125Z" stroke="currentColor" stroke-width="2" stroke-miterlimit="10"/>
    <path d="M20.9626 9.03748L9.0376 20.9625" stroke="currentColor" stroke-width="2" stroke-miterlimit="10"/>
    <path d="M9.0376 9.03748L20.9626 20.9625" stroke="currentColor" stroke-width="2" stroke-miterlimit="10"/>
  </symbol>

  <symbol id="send" viewBox="0 0 31 30" fill="none" xmlns="http://www.w3.org/2000/svg">
    <path d="M5.1967 25.6068L8.09584 15.0002L5.1967 4.39363L26.4099 15.0002L5.1967 25.6068Z" stroke="currentColor" stroke-width="2" stroke-miterlimit="10"/>
    <path d="M8.73195 15H17.5708" stroke="currentColor" stroke-width="2" stroke-miterlimit="10"/>
  </symbol>

  <symbol id="twitter" viewBox="0 0 51 49" fill="none" xmlns="http://www.w3.org/2000/svg">
    <path d="M32.689 13H36.5225L28.1474 22.7426L38 36H30.2855L24.2432 27.9594L17.3295 36H13.4937L22.4516 25.5792L13 13H20.9104L26.372 20.3494L32.689 13ZM31.3435 33.6646H33.4677L19.7561 15.2127H17.4767L31.3435 33.6646Z" fill="#000000"/>
  </symbol>

  <symbol id="linkedin" viewBox="0 0 49 49" xmlns="http://www.w3.org/2000/svg">
    <path fill-rule="evenodd" clip-rule="evenodd" d="M13.0208 10C11.3525 10 10 11.3525 10 13.0208V35.9792C10 37.6475 11.3525 39 13.0208 39H35.9792C37.6475 39 39 37.6475 39 35.9792V13.0208C39 11.3525 37.6475 10 35.9792 10H13.0208ZM14.299 20.8693V34.7123H18.6037V20.8693H14.299ZM13.9535 16.491C13.9535 17.8674 15.0693 18.9832 16.4514 18.9832C17.8277 18.9832 18.9436 17.8617 18.9436 16.491C18.9436 15.1147 17.8277 13.9988 16.4514 13.9988C15.0693 13.9988 13.9535 15.1147 13.9535 16.491ZM30.4133 34.7123H34.7123V27.1168C34.7123 23.3898 33.908 20.5238 29.5523 20.5238C27.4623 20.5238 26.0576 21.6736 25.4856 22.7611H25.4289V20.8693H21.3055V34.7123H25.5988V27.8701C25.5988 26.0633 25.9387 24.3131 28.176 24.3131C30.385 24.3131 30.4133 26.3805 30.4133 27.9834V34.7123Z" fill="#000000"/>
  </symbol>

  <symbol id="crunchbase" viewBox="0 0 49 49" xmlns="http://www.w3.org/2000/svg">
    <path d="M31.7745 26.1471C31.8989 25.8323 31.9592 25.4958 31.9518 25.1573C31.9373 24.4928 31.6631 23.8604 31.1881 23.3956C30.713 22.9307 30.0747 22.6704 29.4101 22.6704C28.7454 22.6704 28.1072 22.9307 27.6321 23.3956C27.157 23.8604 26.8828 24.4928 26.8683 25.1573C26.861 25.4958 26.9212 25.8323 27.0457 26.1471C27.1701 26.462 27.3561 26.7488 27.5929 26.9908C27.8296 27.2327 28.1123 27.425 28.4244 27.5562C28.7364 27.6875 29.0715 27.7551 29.4101 27.7551C29.7486 27.7551 30.0837 27.6875 30.3958 27.5562C30.7078 27.425 30.9905 27.2327 31.2273 26.9908C31.464 26.7488 31.65 26.462 31.7745 26.1471Z" fill="#000000"/>
    <path fill-rule="evenodd" clip-rule="evenodd" d="M13.0208 10C11.3525 10 10 11.3525 10 13.0208V35.9792C10 37.6475 11.3525 39 13.0208 39H35.9792C37.6475 39 39 37.6475 39 35.9792V13.0208C39 11.3525 37.6475 10 35.9792 10H13.0208ZM20.4629 27.5466C19.8295 27.7834 19.128 27.7589 18.5127 27.4785C18.138 27.3078 17.8103 27.0488 17.5575 26.7238C17.3047 26.3988 17.1343 26.0174 17.0611 25.6122C16.9878 25.207 17.0137 24.7901 17.1367 24.3971C17.2597 24.0042 17.476 23.6468 17.7671 23.3557C18.0583 23.0645 18.4156 22.8482 18.8086 22.7252C19.2016 22.6023 19.6185 22.5763 20.0237 22.6496C20.4289 22.7229 20.8103 22.8932 21.1353 23.146C21.4603 23.3988 21.7193 23.7266 21.89 24.1013H23.8958C23.6373 23.042 22.9996 22.1142 22.1033 21.4933C21.207 20.8725 20.1143 20.6015 19.0318 20.7317C17.9493 20.8619 16.952 21.3843 16.2285 22.2C15.505 23.0157 15.1055 24.0682 15.1055 25.1585C15.1055 26.2489 15.505 27.3014 16.2285 28.1171C16.952 28.9328 17.9493 29.4552 19.0318 29.5854C20.1143 29.7156 21.207 29.4446 22.1033 28.8237C22.9996 28.2028 23.6373 27.2751 23.8958 26.2158H21.89C21.6096 26.8311 21.0962 27.3098 20.4629 27.5466ZM30.9404 29.2608C31.4085 29.0837 31.842 28.8261 32.2213 28.4996C32.911 27.9102 33.4033 27.1234 33.6318 26.2454C33.8604 25.3674 33.8141 24.4405 33.4993 23.5896C33.1845 22.7387 32.6163 22.0049 31.8714 21.487C31.1264 20.9692 30.2406 20.6923 29.3333 20.6938H29.0071C28.2285 20.7553 27.4791 21.0176 26.8321 21.455V16.4887H25.0196V29.2608H26.8442V28.8017C27.4392 29.2031 28.1226 29.4546 28.8359 29.5345C29.5492 29.6145 30.2713 29.5206 30.9404 29.2608Z" fill="#000000"/>
  </symbol>

  <symbol id="linkedinMin" viewBox="0 0 27 26" xmlns="http://www.w3.org/2000/svg">
    <path d="M21.375 0H5.625C2.51887 0 0 2.38993 0 5.33705V20.2808C0 23.2279 2.51887 25.6179 5.625 25.6179H21.375C24.4823 25.6179 27 23.2279 27 20.2808V5.33705C27 2.38993 24.4823 0 21.375 0ZM9 20.2808H5.625V8.53928H9V20.2808ZM7.3125 7.18581C6.22575 7.18581 5.34375 6.34255 5.34375 5.3029C5.34375 4.26324 6.22575 3.41998 7.3125 3.41998C8.39925 3.41998 9.28125 4.26324 9.28125 5.3029C9.28125 6.34255 8.40038 7.18581 7.3125 7.18581ZM22.5 20.2808H19.125V14.299C19.125 10.704 14.625 10.9762 14.625 14.299V20.2808H11.25V8.53928H14.625V10.4233C16.1955 7.66294 22.5 7.45907 22.5 13.0662V20.2808Z" fill="currentColor"/>
  </symbol>
</svg>
